<?xml version="1.0" standalone="no"?>
<!DOCTYPE svg PUBLIC "-//W3C//DTD SVG 20010904//EN"
 "http://www.w3.org/TR/2001/REC-SVG-20010904/DTD/svg10.dtd">
<svg version="1.0" xmlns="http://www.w3.org/2000/svg"
 width="700.000000pt" height="700.000000pt" viewBox="0 0 700.000000 700.000000"
 preserveAspectRatio="xMidYMid meet">
<metadata>
Created by potrace 1.14, written by Peter Selinger 2001-2017
</metadata>
<g transform="translate(0.000000,700.000000) scale(0.100000,-0.100000)"
fill="#000000" stroke="none">
<path d="M5190 6338 c-80 -45 -149 -144 -200 -285 -12 -35 -24 -63 -25 -63 -1
0 -32 13 -68 30 -139 63 -308 91 -419 70 -226 -42 -253 -261 -65 -516 45 -61
204 -224 219 -224 17 0 7 -21 -29 -58 -174 -181 -296 -343 -438 -582 -128
-214 -344 -527 -467 -675 -299 -360 -517 -640 -596 -765 -165 -263 -273 -640
-275 -964 -1 -87 7 -192 18 -246 13 -62 28 -117 40 -147 16 -39 19 -57 8 -50
-12 7 -223 18 -458 22 -295 6 -413 17 -553 51 -138 34 -272 115 -272 164 0 21
44 66 84 87 35 18 136 54 136 48 0 -3 11 0 24 4 28 11 114 20 261 27 255 11
375 48 491 150 63 56 83 165 44 247 -50 106 -237 224 -430 272 -52 13 -211 45
-245 49 -74 9 -160 18 -205 21 -68 5 -420 5 -465 0 -22 -2 -65 -7 -95 -10
-220 -24 -432 -90 -555 -175 -101 -70 -165 -166 -165 -249 0 -62 38 -139 90
-183 70 -61 208 -118 325 -135 17 -2 36 -6 42 -8 18 -6 207 -19 275 -18 61 0
81 10 102 52 17 34 3 86 -27 106 -15 10 -59 16 -129 20 -235 11 -379 45 -465
111 -98 75 42 192 317 265 41 11 91 22 110 25 19 2 46 7 60 9 161 29 612 23
790 -11 14 -2 41 -7 60 -10 134 -20 346 -101 408 -153 29 -25 52 -70 45 -88
-9 -23 -90 -64 -165 -84 -69 -17 -132 -24 -331 -34 -49 -2 -103 -7 -120 -10
-18 -3 -43 -7 -57 -9 -55 -10 -168 -50 -217 -78 -190 -107 -222 -287 -75 -424
62 -58 206 -127 313 -150 198 -42 271 -48 704 -59 358 -9 424 -16 445 -47 35
-52 98 -103 262 -211 155 -102 187 -128 303 -248 289 -299 483 -485 538 -518
31 -18 76 -36 100 -38 36 -4 46 -1 68 21 76 76 61 353 -29 533 l-31 63 42 -5
c23 -3 80 -7 127 -9 83 -5 151 -11 218 -21 62 -9 107 -16 142 -20 19 -3 46 -7
60 -10 24 -4 38 -6 145 -20 28 -4 61 -9 75 -11 106 -17 245 -22 293 -10 58 14
56 81 -3 124 -43 32 -135 76 -220 105 -65 23 -278 79 -334 89 -12 2 2 14 45
37 276 146 448 409 544 831 31 136 67 356 81 495 3 33 7 71 9 85 5 32 18 161
31 295 3 39 7 72 9 73 2 2 23 -9 47 -26 59 -40 156 -88 198 -97 80 -18 155 5
166 50 9 37 -27 78 -194 219 -197 166 -187 151 -174 228 6 35 14 81 17 103 3
23 8 52 10 65 11 49 26 125 31 150 3 13 16 67 30 120 14 52 27 102 29 110 2 8
20 65 40 125 114 342 292 670 532 975 6 8 56 71 110 140 54 69 101 130 106
135 147 181 214 343 165 402 -13 17 -67 42 -103 49 -11 2 -31 6 -45 9 -30 6
-243 7 -285 0 -16 -2 -55 -6 -85 -10 -84 -8 -255 -42 -352 -69 l-87 -24 -6 31
c-3 18 -20 68 -37 112 -94 241 -241 337 -388 253z m226 -629 c43 -13 112 -85
124 -129 31 -111 -16 -219 -115 -266 -94 -44 -224 -1 -273 91 -22 41 -24 53
-24 111 1 148 140 241 288 193z"/>
</g>
</svg>
